<svg xmlns="http://www.w3.org/2000/svg" viewBox="0 0 48 48"><path d="M 11.5 6 C 8.467 6 6 8.467 6 11.5 L 6 36.5 C 6 39.533 8.467 42 11.5 42 L 32.40625 42 L 29.40625 39 L 11.5 39 C 10.122 39 9 37.878 9 36.5 L 9 11.5 C 9 10.122 10.122 9 11.5 9 L 36.5 9 C 37.878 9 39 10.122 39 11.5 L 39 29.40625 L 42 32.40625 L 42 11.5 C 42 8.467 39.533 6 36.5 6 L 11.5 6 z M 13.5 16 A 1.50015 1.50015 0 1 0 13.5 19 L 34.5 19 A 1.50015 1.50015 0 1 0 34.5 16 L 13.5 16 z M 13.5 23 C 12.671 23 12 23.671 12 24.5 C 12 25.329 12.671 26 13.5 26 L 26.056641 26 C 26.714641 25.356 27.577047 24.999047 28.498047 24.998047 C 28.999047 24.998047 29.810547 25.214844 29.810547 25.214844 C 29.926547 25.001844 30 24.761 30 24.5 C 30 23.671 29.329 23 28.5 23 L 13.5 23 z M 28.46875 27 C 28.087047 27.0075 27.716953 27.161953 27.439453 27.439453 C 27.070453 27.808453 26.919969 28.343563 27.042969 28.851562 L 28.519531 34.972656 C 28.583531 35.241656 28.722969 35.486641 28.917969 35.681641 L 38.835938 45.599609 C 39.767937 46.531609 40.991797 46.998047 42.216797 46.998047 C 43.440797 46.998047 44.667609 46.530609 45.599609 45.599609 C 47.464609 43.733609 47.464609 40.700938 45.599609 38.835938 L 35.681641 28.917969 C 35.486641 28.722969 35.241656 28.583531 34.972656 28.519531 L 28.851562 27.042969 C 28.724813 27.011969 28.595984 26.9975 28.46875 27 z M 13.5 30 C 12.671 30 12 30.671 12 31.5 C 12 32.329 12.671 33 13.5 33 L 25.984375 33 L 25.261719 30 L 13.5 30 z"/></svg>